<svg xmlns="http://www.w3.org/2000/svg" viewBox="0 0 64 64" role="img" aria-label="Grok">
  <rect width="64" height="64" rx="16" fill="#050505"/>
  <g transform="translate(10.5 10.5) scale(1.3)" fill="#f7f7f2">
    <path d="M13.237 21.041 24.319 12.851c.543-.402 1.319-.245 1.578.379 1.363 3.289.754 7.241-1.957 9.955-2.71 2.714-6.482 3.309-9.929 1.954l-3.766 1.745c5.401 3.697 11.96 2.783 16.059-1.324 3.251-3.255 4.258-7.692 3.317-11.693l.008.009C28.264 7.998 29.965 5.649 33.449.845c.082-.114.165-.228.247-.345l-4.585 4.591v-.015L13.234 21.044"/>
    <path d="M10.95 23.031c-3.877-3.708-3.208-9.446.1-12.755 2.446-2.449 6.454-3.448 9.952-1.979l3.758-1.737c-.677-.49-1.545-1.017-2.541-1.387-4.499-1.854-9.886-.931-13.544 2.728-3.519 3.523-4.625 8.939-2.725 13.561 1.419 3.454-.907 5.898-3.251 8.364-.831.874-1.664 1.748-2.335 2.674l10.583-9.466"/>
  </g>
</svg>
