<svg xmlns="http://www.w3.org/2000/svg" width="660" height="420" viewBox="0 0 660 420">
  <defs>
    <radialGradient id="glow" cx="50%" cy="34%" r="70%">
      <stop offset="0" stop-color="#b6ff4d" stop-opacity="0.18"/>
      <stop offset="0.45" stop-color="#b6ff4d" stop-opacity="0.05"/>
      <stop offset="1" stop-color="#050704" stop-opacity="0"/>
    </radialGradient>
    <linearGradient id="line" x1="0" y1="0" x2="1" y2="0">
      <stop stop-color="#2b331e" stop-opacity="0"/>
      <stop offset="0.5" stop-color="#b6ff4d" stop-opacity="0.82"/>
      <stop offset="1" stop-color="#2b331e" stop-opacity="0"/>
    </linearGradient>
    <pattern id="dots" width="18" height="18" patternUnits="userSpaceOnUse">
      <circle cx="2" cy="2" r="1.2" fill="#b6ff4d" opacity="0.18"/>
    </pattern>
    <filter id="soft" x="-30%" y="-30%" width="160%" height="160%">
      <feGaussianBlur stdDeviation="16"/>
    </filter>
  </defs>

  <rect width="660" height="420" fill="#050704"/>
  <rect width="660" height="420" fill="url(#dots)"/>
  <ellipse cx="330" cy="162" rx="284" ry="180" fill="url(#glow)"/>
  <rect x="28" y="28" width="604" height="364" rx="28" fill="#0b0f08" opacity="0.92"/>
  <rect x="28.5" y="28.5" width="603" height="363" rx="27.5" fill="none" stroke="#2b331e"/>

  <g transform="translate(286 42)">
    <rect x="0" y="0" width="88" height="88" rx="22" fill="#b6ff4d"/>
    <path d="M49 9 24 48h20l-7 31 29-44H46Z" fill="#ff6b4a"/>
    <path d="M49 9 24 48h20l-7 31 29-44H46Z" fill="#fff" opacity="0.22"/>
  </g>

  <text x="330" y="156" text-anchor="middle" font-family="Helvetica" font-size="34" font-weight="800" fill="#f5f7ef">Maxx<tspan fill="#b6ff4d">Token</tspan></text>
  <text x="330" y="182" text-anchor="middle" font-family="Helvetica" font-size="14" font-weight="600" letter-spacing="1.4" fill="#8f9688">USE WHAT YOU PAY FOR</text>

  <line x1="248" y1="250" x2="412" y2="250" stroke="url(#line)" stroke-width="2"/>
  <path d="M398 238 416 250 398 262" fill="none" stroke="#b6ff4d" stroke-width="3" stroke-linecap="round" stroke-linejoin="round"/>
  <circle cx="330" cy="250" r="22" fill="#b6ff4d" opacity="0.12" filter="url(#soft)"/>
  <text x="330" y="314" text-anchor="middle" font-family="Helvetica" font-size="15" font-weight="700" fill="#f5f7ef">Drag MaxxToken into Applications</text>
  <text x="330" y="340" text-anchor="middle" font-family="Helvetica" font-size="12" fill="#8f9688">Then open it from Applications so macOS trusts the install location.</text>
</svg>
